<svg xmlns="http://www.w3.org/2000/svg" viewBox="13 3 53.3333 73.5067" xml:space="preserve" x="0px" y="0px">
  <path fill-rule="evenodd" clip-rule="evenodd" d="M46.2533 8.85333C57.79 11.79 66.3333 22.2167 66.3333 34.6667C66.3333 47.0933 57.82 57.5033 46.3167 60.4633V63.2067H47.01C50.6833 63.2067 53.66 66.1833 53.66 69.8567C53.66 73.53 50.6833 76.5067 47.01 76.5067H32.3233C28.65 76.5067 25.6733 73.53 25.6733 69.8567C25.6733 66.1833 28.65 63.2067 32.3233 63.2067H33.0167V60.4633C21.5133 57.5033 13 47.0933 13 34.6667C13 22.2167 21.5433 11.79 33.08 8.85333C33.4867 5.56 36.2633 3 39.6667 3C43.07 3 45.8467 5.56 46.2533 8.85333ZM33 44.0167C33 47.6967 35.9867 50.6833 39.6667 50.6833C43.3467 50.6833 46.3333 47.6967 46.3333 44.0167C46.3333 40.3367 43.3467 37.35 39.6667 37.35C35.9867 37.35 33 40.3367 33 44.0167ZM46.4567 65.69C48.7533 65.69 50.6133 67.5533 50.6133 69.85C50.6133 72.1433 48.7533 74.0067 46.4567 74.0067C44.16 74.0067 42.3 72.1433 42.3 69.85C42.3 67.5533 44.16 65.69 46.4567 65.69ZM28.72 69.85C28.72 72.1433 30.58 74.0067 32.8767 74.0067C35.1733 74.0067 37.0333 72.1433 37.0333 69.85C37.0333 67.5533 35.1733 65.69 32.8767 65.69C30.58 65.69 28.72 67.5533 28.72 69.85ZM22.84 25.5433C22.84 21.86 25.8267 18.8767 29.5067 18.8767C33.19 18.8767 36.1733 21.86 36.1733 25.5433C36.1733 29.2233 33.19 32.21 29.5067 32.21C25.8267 32.21 22.84 29.2233 22.84 25.5433ZM21.7367 40.6833C21.7367 42.5233 23.23 44.0167 25.07 44.0167C26.9133 44.0167 28.4033 42.5233 28.4033 40.6833C28.4033 38.8433 26.9133 37.35 25.07 37.35C23.23 37.35 21.7367 38.8433 21.7367 40.6833ZM49.8267 18.8767C53.5067 18.8767 56.4933 21.86 56.4933 25.5433C56.4933 29.2233 53.5067 32.21 49.8267 32.21C46.1433 32.21 43.16 29.2233 43.16 25.5433C43.16 21.86 46.1433 18.8767 49.8267 18.8767ZM54.2633 44.0167C56.1033 44.0167 57.5967 42.5233 57.5967 40.6833C57.5967 38.8433 56.1033 37.35 54.2633 37.35C52.42 37.35 50.93 38.8433 50.93 40.6833C50.93 42.5233 52.42 44.0167 54.2633 44.0167Z" />
</svg>