<svg xmlns="http://www.w3.org/2000/svg" viewBox="13 18 53.3333 44.64" xml:space="preserve" x="0px" y="0px">
  <path fill-rule="evenodd" clip-rule="evenodd" d="M57.1233 18C58.5271 18 59.8858 18.5752 60.7459 19.6847C64.2384 24.19 66.3333 29.8319 66.3333 35.9733C66.3333 50.7 54.3933 62.64 39.6667 62.64C24.94 62.64 13 50.7 13 35.9733C13 29.8319 15.0949 24.19 18.5875 19.6847C19.4475 18.5752 20.8063 18 22.2101 18H57.1233ZM49.6667 35.9733C49.6667 39.1933 52.28 41.8067 55.5 41.8067C58.72 41.8067 61.3333 39.1933 61.3333 35.9733C61.3333 32.7533 58.72 30.14 55.5 30.14C52.28 30.14 49.6667 32.7533 49.6667 35.9733ZM47.5833 54.37C44.3633 54.37 41.75 51.7567 41.75 48.5367C41.75 45.3133 44.3633 42.7033 47.5833 42.7033C50.8033 42.7033 53.4167 45.3133 53.4167 48.5367C53.4167 51.7567 50.8033 54.37 47.5833 54.37ZM39.6667 30.14C36.4467 30.14 33.8333 32.7533 33.8333 35.9733C33.8333 39.1933 36.4467 41.8067 39.6667 41.8067C42.8867 41.8067 45.5 39.1933 45.5 35.9733C45.5 32.7533 42.8867 30.14 39.6667 30.14ZM31.75 54.37C28.53 54.37 25.9167 51.7567 25.9167 48.5367C25.9167 45.3133 28.53 42.7033 31.75 42.7033C34.97 42.7033 37.5833 45.3133 37.5833 48.5367C37.5833 51.7567 34.97 54.37 31.75 54.37ZM23.8333 30.14C20.6133 30.14 18 32.7533 18 35.9733C18 39.1933 20.6133 41.8067 23.8333 41.8067C27.0533 41.8067 29.6667 39.1933 29.6667 35.9733C29.6667 32.7533 27.0533 30.14 23.8333 30.14ZM31.75 22.67C33.59 22.67 35.0833 24.1633 35.0833 26.0033C35.0833 27.8433 33.59 29.3367 31.75 29.3367C29.91 29.3367 28.4167 27.8433 28.4167 26.0033C28.4167 24.1633 29.91 22.67 31.75 22.67ZM50.9167 26.0033C50.9167 24.1633 49.4233 22.67 47.5833 22.67C45.7433 22.67 44.25 24.1633 44.25 26.0033C44.25 27.8433 45.7433 29.3367 47.5833 29.3367C49.4233 29.3367 50.9167 27.8433 50.9167 26.0033Z" />
</svg>