<svg
   viewBox="0 0 20 20"
   x="0px"
   y="0px"
   version="1.1"
   xmlns="http://www.w3.org/2000/svg"
   xmlns:svg="http://www.w3.org/2000/svg">
  <path
     d="M 10,0 C 4.4858,0 0,4.4858 0,10 0,15.5142 4.4858,20 10,20 15.5142,20 20,15.5142 20,10 20,4.4858 15.5142,0 10,0 Z m 0,16 c -0.5522,0 -1,-0.4477 -1,-1 0,-0.5523 0.4478,-1 1,-1 0.5522,0 1,0.4477 1,1 0,0.5523 -0.4477,1 -1,1 z m 1.6133,-5.2573 c -0.3486,0.1709 -0.5571,0.4648 -0.5571,0.7866 v 0.5132 c 0,0.5522 -0.4478,1 -1,1 -0.5522,0 -1,-0.4478 -1,-1 v -0.5132 c 0,-1.0864 0.6436,-2.0767 1.6792,-2.5835 C 11.2881,8.6763 11.7579,8.0234 11.5635,7.1729 11.437,6.6158 10.9756,6.1607 10.416,6.0391 9.5273,5.8467 8.8667,6.3775 8.625,6.9507 8.4111,7.46 7.8257,7.6992 7.3154,7.4839 6.8066,7.27 6.5678,6.6836 6.7822,6.1743 c 0.6636,-1.5767 2.3687,-2.46 4.0576,-2.0894 1.3237,0.2866 2.3735,1.3242 2.6738,2.6431 0.3735,1.6353 -0.4077,3.2861 -1.9004,4.0146 z"
     id="connector_unknown" />
</svg>
