<svg xmlns="http://www.w3.org/2000/svg" viewBox="13 11 53.3333 58.37" xml:space="preserve" x="0px" y="0px">
  <path fill-rule="evenodd" clip-rule="evenodd" d="M33.0833 11.89C37.6667 10.7033 41.5917 10.7032 46.2533 11.89C57.79 14.8266 66.3333 25.25 66.3333 37.7033C66.3333 50.1533 57.79 60.58 46.2533 63.5166C45.8467 66.81 43.07 69.37 39.6667 69.37C36.2667 69.37 33.49 66.81 33.0833 63.5166C21.5467 60.58 13 50.1533 13 37.7033C13 25.25 21.5587 14.8737 33.0833 11.89ZM50.93 43.72C50.93 45.56 52.42 47.0533 54.2633 47.0533C56.1033 47.0533 57.5967 45.56 57.5967 43.72C57.5967 41.88 56.1033 40.3866 54.2633 40.3866C52.42 40.3866 50.93 41.88 50.93 43.72ZM43.16 28.58C43.16 24.8966 46.1433 21.9133 49.8267 21.9133C53.5067 21.9133 56.4933 24.8966 56.4933 28.58C56.4933 32.26 53.5067 35.2466 49.8267 35.2466C46.1433 35.2466 43.16 32.26 43.16 28.58ZM33 47.0533C33 50.7333 35.9867 53.72 39.6667 53.72C43.35 53.72 46.3333 50.7333 46.3333 47.0533C46.3333 43.37 43.35 40.3866 39.6667 40.3866C35.9867 40.3866 33 43.37 33 47.0533ZM22.84 28.58C22.84 24.8966 25.8267 21.9133 29.5067 21.9133C33.19 21.9133 36.1733 24.8966 36.1733 28.58C36.1733 32.26 33.19 35.2466 29.5067 35.2466C25.8267 35.2466 22.84 32.26 22.84 28.58ZM21.7367 43.72C21.7367 45.56 23.23 47.0533 25.07 47.0533C26.9133 47.0533 28.4033 45.56 28.4033 43.72C28.4033 41.88 26.9133 40.3866 25.07 40.3866C23.23 40.3866 21.7367 41.88 21.7367 43.72Z" />
</svg>