<svg xmlns="http://www.w3.org/2000/svg" viewBox="13 12 53.3333 56.6667" xml:space="preserve" x="0px" y="0px">
  <path fill-rule="evenodd" clip-rule="evenodd" d="M64.1161 19.3518C65.5401 22.6042 66.3333 26.1942 66.3333 29.9733C66.3333 41.9267 58.4667 52.0433 47.63 55.43C51.0067 55.7433 53.66 58.5567 53.66 62.0167C53.66 65.69 50.6833 68.6667 47.01 68.6667H32.3233C28.65 68.6667 25.6733 65.69 25.6733 62.0167C25.6733 58.5567 28.3267 55.7433 31.7033 55.43C20.8667 52.0433 13 41.9267 13 29.9733C13 26.1942 13.7933 22.6042 15.2173 19.3518C17.4694 14.208 23.2051 12 28.8203 12H50.513C56.1283 12 61.8639 14.208 64.1161 19.3518ZM55.5 24.14C52.28 24.14 49.6667 26.75 49.6667 29.9733C49.6667 33.1933 52.28 35.8067 55.5 35.8067C58.72 35.8067 61.3333 33.1933 61.3333 29.9733C61.3333 26.75 58.72 24.14 55.5 24.14ZM47.5833 48.37C44.3633 48.37 41.75 45.7567 41.75 42.5367C41.75 39.3133 44.3633 36.7033 47.5833 36.7033C50.8033 36.7033 53.4167 39.3133 53.4167 42.5367C53.4167 45.7567 50.8033 48.37 47.5833 48.37ZM46.4567 66.1633C48.7533 66.1633 50.6133 64.3067 50.6133 62.0067C50.6133 59.7133 48.7533 57.8533 46.4567 57.8533C44.16 57.8533 42.3 59.7133 42.3 62.0067C42.3 64.3067 44.16 66.1633 46.4567 66.1633ZM32.8767 66.1633C30.58 66.1633 28.72 64.3067 28.72 62.0067C28.72 59.7133 30.58 57.8533 32.8767 57.8533C35.1733 57.8533 37.0333 59.7133 37.0333 62.0067C37.0333 64.3067 35.1733 66.1633 32.8767 66.1633ZM31.75 36.7033C28.53 36.7033 25.9167 39.3133 25.9167 42.5367C25.9167 45.7567 28.53 48.37 31.75 48.37C34.97 48.37 37.5833 45.7567 37.5833 42.5367C37.5833 39.3133 34.97 36.7033 31.75 36.7033ZM18 29.9733C18 26.75 20.6133 24.14 23.8333 24.14C27.0533 24.14 29.6667 26.75 29.6667 29.9733C29.6667 33.1933 27.0533 35.8067 23.8333 35.8067C20.6133 35.8067 18 33.1933 18 29.9733ZM35.0833 20.0033C35.0833 18.1633 33.59 16.67 31.75 16.67C29.91 16.67 28.4167 18.1633 28.4167 20.0033C28.4167 21.8433 29.91 23.3367 31.75 23.3367C33.59 23.3367 35.0833 21.8433 35.0833 20.0033ZM39.6667 24.14C42.8867 24.14 45.5 26.75 45.5 29.9733C45.5 33.1933 42.8867 35.8067 39.6667 35.8067C36.4467 35.8067 33.8333 33.1933 33.8333 29.9733C33.8333 26.75 36.4467 24.14 39.6667 24.14ZM50.9167 20.0033C50.9167 18.1633 49.4233 16.67 47.5833 16.67C45.7433 16.67 44.25 18.1633 44.25 20.0033C44.25 21.8433 45.7433 23.3367 47.5833 23.3367C49.4233 23.3367 50.9167 21.8433 50.9167 20.0033Z" />
</svg>