<svg xmlns="http://www.w3.org/2000/svg" viewBox="13 13 53.3333 53.3333" xml:space="preserve" x="0px" y="0px">
  <path fill-rule="evenodd" clip-rule="evenodd" d="M39.6667 13C24.94 13 13 24.94 13 39.6667C13 54.3933 24.94 66.3333 39.6667 66.3333C54.3933 66.3333 66.3333 54.3933 66.3333 39.6667C66.3333 24.94 54.3933 13 39.6667 13ZM51.9167 46.3333C48.2367 46.3333 45.25 43.3467 45.25 39.6667C45.25 35.9867 48.2367 33 51.9167 33C55.5967 33 58.5833 35.9867 58.5833 39.6667C58.5833 43.3467 55.5967 46.3333 51.9167 46.3333ZM39.6667 53.0933L35.5967 57.1633C36.7267 58.04 38.1267 58.5833 39.6667 58.5833C41.2067 58.5833 42.6067 58.04 43.7367 57.1633L39.6667 53.0933ZM20.75 39.6667C20.75 35.9867 23.7367 33 27.4167 33C31.1 33 34.0833 35.9867 34.0833 39.6667C34.0833 43.3467 31.1 46.3333 27.4167 46.3333C23.7367 46.3333 20.75 43.3467 20.75 39.6667ZM39.6667 26.24L43.7367 22.17C42.6067 21.2933 41.2067 20.75 39.6667 20.75C38.1267 20.75 36.7267 21.2933 35.5967 22.17L39.6667 26.24ZM46.3333 27.4167C46.3333 28.9567 45.79 30.3567 44.9133 31.4833L40.8467 27.4167L44.9133 23.3467C45.79 24.4767 46.3333 25.8767 46.3333 27.4167ZM34.42 23.3467C33.5433 24.4767 33 25.8767 33 27.4167C33 28.9567 33.5433 30.3567 34.42 31.4833L38.49 27.4167L34.42 23.3467ZM35.5967 32.6633L39.6667 28.5967L43.7367 32.6633C42.6067 33.54 41.2067 34.0833 39.6667 34.0833C38.1267 34.0833 36.7267 33.54 35.5967 32.6633ZM33 51.9167C33 53.4567 33.5433 54.8567 34.42 55.9867L38.49 51.9167L34.42 47.8467C33.5433 48.9767 33 50.3767 33 51.9167ZM39.6667 50.7367L35.5967 46.67C36.7267 45.7933 38.1267 45.25 39.6667 45.25C41.2067 45.25 42.6067 45.7933 43.7367 46.67L39.6667 50.7367ZM44.9133 55.9867C45.79 54.8567 46.3333 53.4567 46.3333 51.9167C46.3333 50.3767 45.79 48.9767 44.9133 47.8467L40.8467 51.9167L44.9133 55.9867Z" />
</svg>