<svg xmlns="http://www.w3.org/2000/svg" viewBox="20 13 40 53.3333" xml:space="preserve" x="0px" y="0px">
  <path fill-rule="evenodd" clip-rule="evenodd" d="M27.0025 16.3926C30.8449 14.2336 35.2757 13 40 13C44.7213 13 49.1505 14.233 52.9926 16.3912C58.0834 19.2507 60 25.2878 60 31.1267V48.2033C60 54.0422 58.0834 60.0791 52.9932 62.9397C49.1509 65.099 44.7216 66.3333 40 66.3333C35.2754 66.3333 30.8444 65.0985 27.0019 62.9383C21.9146 60.0783 20 54.0441 20 48.2079V31.1221C20 25.2859 21.9146 19.2514 27.0025 16.3926ZM45.6433 33.5833C45.6433 35.8833 47.51 37.75 49.81 37.75C52.11 37.75 53.9767 35.8833 53.9767 33.5833C53.9767 31.2833 52.11 29.4167 49.81 29.4167C47.51 29.4167 45.6433 31.2833 45.6433 33.5833ZM49.81 49.9133C47.51 49.9133 45.6433 48.0467 45.6433 45.7467C45.6433 43.4467 47.51 41.58 49.81 41.58C52.11 41.58 53.9767 43.4467 53.9767 45.7467C53.9767 48.0467 52.11 49.9133 49.81 49.9133ZM35.8333 58C35.8333 60.3 37.6967 62.1667 40 62.1667C42.3 62.1667 44.1667 60.3 44.1667 58C44.1667 55.6967 42.3 53.8333 40 53.8333C37.6967 53.8333 35.8333 55.6967 35.8333 58ZM30.1867 37.75C27.8867 37.75 26.02 35.8833 26.02 33.5833C26.02 31.2833 27.8867 29.4167 30.1867 29.4167C32.49 29.4167 34.3533 31.2833 34.3533 33.5833C34.3533 35.8833 32.49 37.75 30.1867 37.75ZM26.02 45.7467C26.02 48.0467 27.8867 49.9133 30.1867 49.9133C32.49 49.9133 34.3533 48.0467 34.3533 45.7467C34.3533 43.4467 32.49 41.58 30.1867 41.58C27.8867 41.58 26.02 43.4467 26.02 45.7467ZM30.1833 23.17C31.1067 23.17 31.85 23.92 31.85 24.8367C31.85 25.76 31.1067 26.5033 30.1833 26.5033C29.2667 26.5033 28.5167 25.76 28.5167 24.8367C28.5167 23.92 29.2667 23.17 30.1833 23.17ZM51.48 24.8367C51.48 23.92 50.73 23.17 49.8133 23.17C48.8933 23.17 48.1467 23.92 48.1467 24.8367C48.1467 25.76 48.8933 26.5033 49.8133 26.5033C50.73 26.5033 51.48 25.76 51.48 24.8367Z" />
</svg>