<?xml version="1.0" encoding="UTF-8" standalone="no"?>
<svg
   viewBox="0 0 800 799.99996"
   version="1.1"
   id="svg6"
   sodipodi:docname="ev-plug-chaoji.svg"
   width="800"
   height="800"
   inkscape:version="1.4.3 (0d15f75, 2025-12-25)"
   xmlns:inkscape="http://www.inkscape.org/namespaces/inkscape"
   xmlns:sodipodi="http://sodipodi.sourceforge.net/DTD/sodipodi-0.dtd"
   xmlns="http://www.w3.org/2000/svg"
   xmlns:svg="http://www.w3.org/2000/svg"
   xmlns:rdf="http://www.w3.org/1999/02/22-rdf-syntax-ns#"
   xmlns:cc="http://creativecommons.org/ns#"
   xmlns:dc="http://purl.org/dc/elements/1.1/">
  <sodipodi:namedview
     id="namedview6"
     pagecolor="#ffffff"
     bordercolor="#000000"
     borderopacity="0.25"
     inkscape:showpageshadow="2"
     inkscape:pageopacity="0.0"
     inkscape:pagecheckerboard="0"
     inkscape:deskcolor="#d1d1d1"
     inkscape:zoom="0.48414733"
     inkscape:cx="770.42664"
     inkscape:cy="265.41507"
     inkscape:window-width="1920"
     inkscape:window-height="1129"
     inkscape:window-x="5752"
     inkscape:window-y="596"
     inkscape:window-maximized="1"
     inkscape:current-layer="svg6" />
  <defs
     id="defs1">
    <style
       id="style1">.cls-1{fill:#3e3e3e;}</style>
  </defs>
  <title
     id="title1">Element 7</title>
  <g
     id="Ebene_2"
     data-name="Ebene 2"
     transform="matrix(2.9757564,0,0,2.9757564,40.886803,159.66327)">
    <g
       id="Ebene_1-2"
       data-name="Ebene 1">
      <path
         class="cls-1"
         d="m 119.53,161.57 h -5.63 c -6.21,-0.08 -12.18,-0.23 -19.35,-0.41 -3.86,-0.1 -7.57,-0.24 -12,-0.41 q -7.59,-0.28 -15.18,-0.62 -6.4,-0.28 -12.81,-0.62 -4.15,-0.21 -8.31,-0.45 L 38,158.59 c -1,-0.06 -2,0 -3.05,0 -16.6,-0.35 -31.34,-13.11 -34.29,-29.7 a 34.74,34.74 0 0 1 -0.51,-9.2 12.61,12.61 0 0 0 0,-1.38 18.48,18.48 0 0 1 0.16,-3.45 30.18,30.18 0 0 0 0.22,-5.3 c 0,-0.93 0,-1.87 0,-2.8 0,-2 0,-4 0,-6 0,-0.9 0,-1.8 0,-2.7 V 65.33 c 0,-0.9 0,-1.8 0,-2.71 0,-2 0,-4.15 0,-6.25 A 42.18,42.18 0 0 1 1.6,48.18 C 5.78,28.64 17,14.3 35,5.56 A 55.12,55.12 0 0 1 53.44,0.37 59.12,59.12 0 0 1 97.43,13 q 23.75,0 47.5,0 a 58.67,58.67 0 0 1 27.29,-11.68 59.49,59.49 0 0 1 66.32,41.82 58.65,58.65 0 0 1 2.25,11.26 54.55,54.55 0 0 1 0.1,10.43 c 0,0.45 0,1 0,1.59 v 2.78 q 0,23.43 0,46.86 c 0,0.68 0.09,1.49 0.18,2.34 a 36.27,36.27 0 0 1 -26.93,39.31 49,49 0 0 1 -10.74,1.63 c -3.24,0.13 -6.55,0.31 -9.75,0.49 l -4.71,0.26 c -1.57,0.09 -3.14,0.16 -4.71,0.22 h -1.13 q -6.19,0.24 -12.4,0.46 -6.76,0.23 -13.54,0.41 h -1.53 c -4.21,0.12 -8.58,0.23 -12.89,0.28 -3.33,0 -6.7,0 -10,0 H 119.53 Z M 60.48,10 a 58.61,58.61 0 0 0 -6,0.32 45.43,45.43 0 0 0 -15.12,4.24 C 24.09,22 14.93,33.67 11.35,50.28 a 32.24,32.24 0 0 0 -0.84,6.28 c 0,2 0,4 0,6 0,0.92 0,1.84 0,2.76 v 32.73 c 0,0.88 0,1.77 0,2.65 0,2 0,4.12 0,6.21 0,0.83 0,1.65 0,2.47 a 39.26,39.26 0 0 1 -0.35,7.08 9.45,9.45 0 0 0 0,1.56 20.91,20.91 0 0 1 0,2.47 25.47,25.47 0 0 0 0.39,6.61 c 2.13,12 12.73,21.2 24.66,21.45 h 1.13 c 0.74,0 1.48,0 2.23,0 l 8.3,0.45 8.27,0.44 q 6.38,0.34 12.74,0.62 7.56,0.33 15.12,0.62 c 4.41,0.17 8.09,0.3 11.9,0.4 7.13,0.18 13.07,0.33 19.23,0.41 3.29,0 6.65,0 9.91,0 h 9.47 c 3,0 6.13,0 9.18,0 4.23,0 8.56,-0.16 12.74,-0.27 h 1.52 q 6.73,-0.18 13.47,-0.42 l 12.36,-0.45 h 1.13 l 4.56,-0.21 4.68,-0.26 c 3.24,-0.18 6.59,-0.37 9.9,-0.51 a 38.39,38.39 0 0 0 8.56,-1.29 26.32,26.32 0 0 0 19.6,-28.45 29.85,29.85 0 0 1 -0.26,-3.53 q 0,-23.43 0,-46.87 V 66.44 A 25.31,25.31 0 0 1 231.03,63.9 43.63,43.63 0 0 0 230.94,55.38 48.92,48.92 0 0 0 229,46 49.55,49.55 0 0 0 173.75,11.17 a 48.68,48.68 0 0 0 -23,10 8.19,8.19 0 0 1 -5.28,1.83 v 0 q -24.28,0 -48.59,0 v 0 A 8.11,8.11 0 0 1 91.63,21.14 C 82.2,13.67 72,10 60.48,10 Z"
         id="path1" />
      <path
         class="cls-1"
         d="m 221.29,60.13 a 40,40 0 1 1 -40,-39.94 39.93,39.93 0 0 1 40,39.94 z M 164.38,60 A 16.58,16.58 0 1 0 180.93,43.36 16.6,16.6 0 0 0 164.38,60 Z"
         id="path2" />
      <path
         class="cls-1"
         d="m 20.64,59.71 a 40,40 0 1 1 40,40 40,40 0 0 1 -40,-40 z m 40,-15.9 A 16.6,16.6 0 1 0 76.88,60.76 16.58,16.58 0 0 0 60.66,43.81 Z"
         id="path3" />
      <path
         class="cls-1"
         d="m 93.61,112.28 a 27.38,27.38 0 1 1 27.19,27.44 27.33,27.33 0 0 1 -27.19,-27.44 z m 17.17,0 a 10,10 0 1 0 10.07,-10 10,10 0 0 0 -10.07,9.99 z"
         id="path4" />
      <path
         class="cls-1"
         d="m 55.91,116 a 1.34,1.34 0 0 0 1.64,-0.56 17,17 0 0 1 10.82,-5.86 17.23,17.23 0 1 1 -12.75,25.61 c -0.83,-1.45 -0.92,-1.44 -2,-0.19 a 16.91,16.91 0 0 1 -14.11,6 17.21,17.21 0 1 1 16,-25.72 c 0.11,0.27 0.27,0.53 0.4,0.72 z m -14.77,2.79 a 5,5 0 1 0 5,5 4.93,4.93 0 0 0 -5,-4.96 z m 34,7.71 a 5,5 0 1 0 -5,5 4.94,4.94 0 0 0 4.97,-4.96 z"
         id="path5" />
      <path
         class="cls-1"
         d="m 171.21,109.26 a 17.2,17.2 0 0 1 13.08,5.84 c 0.12,0.13 0.22,0.27 0.34,0.39 0.6,0.64 1.18,0.59 1.64,-0.15 a 17.21,17.21 0 1 1 17.19,26 16.83,16.83 0 0 1 -15.33,-5.61 c -0.14,-0.15 -0.26,-0.32 -0.41,-0.46 a 0.92,0.92 0 0 0 -1.6,0.15 A 17.44,17.44 0 0 1 182,140 17.22,17.22 0 1 1 169,109.41 c 0.83,-0.1 1.59,-0.11 2.21,-0.15 z m 29.33,9.95 a 5,5 0 1 0 5,5 5,5 0 0 0 -5,-5 z m -29.31,2.51 a 5,5 0 1 0 5,4.93 4.92,4.92 0 0 0 -5,-4.93 z"
         id="path6" />
    </g>
  </g>
  <metadata
     id="metadata6">
    <rdf:RDF>
      <cc:Work
         rdf:about="">
        <dc:title>Element 7</dc:title>
      </cc:Work>
    </rdf:RDF>
  </metadata>
  <rect
     width="800"
     height="800"
     fill="none"
     id="rect1"
     x="0"
     y="0"
     style="stroke-width:33.3333" />
</svg>
