<?xml version="1.0" encoding="UTF-8" standalone="no"?>
<!-- Uploaded to: SVG Repo, www.svgrepo.com, Generator: SVG Repo Mixer Tools -->

<svg
   width="800px"
   height="800px"
   viewBox="0 0 24 24"
   version="1.1"
   id="svg1"
   xmlns="http://www.w3.org/2000/svg"
   xmlns:svg="http://www.w3.org/2000/svg">
  <defs
     id="defs1" />
  <path
     d="M 12,2 C 3.0903319,2 -1.3700317,12.771386 4.9292914,19.070709 11.228614,25.370032 22,20.909668 22,12 22,6.4771525 17.522847,2 12,2 Z m 0,18 C 4.8722655,20 1.3039747,11.382892 6.3434331,6.3434331 11.382892,1.3039747 20,4.8722655 20,12 c 0,4.418278 -3.581722,8 -8,8 z"
     id="path1" />
  <rect
     width="24"
     height="24"
     fill="none"
     id="rect1" />
  <path
     style="font-size:15.2px;line-height:24.7px;font-family:Arial;-inkscape-font-specification:Arial;stroke-width:0.003"
     d="m 11.32461,14.853712 q -0.0074,-0.267188 -0.0074,-0.400782 0,-0.786718 0.222656,-1.358203 0.163281,-0.430468 0.526953,-0.868359 0.267188,-0.319141 0.957422,-0.927734 0.697656,-0.616016 0.905469,-0.979688 0.207812,-0.3636717 0.207812,-0.7941404 0,-0.7792969 -0.608594,-1.365625 -0.608593,-0.59375 -1.491796,-0.59375 -0.853516,0 -1.425,0.534375 -0.571485,0.534375 -0.7496098,1.6699218 L 8.4894533,9.6064462 Q 8.6750002,8.0849618 9.5878908,7.2759775 10.508203,6.4669931 12.014844,6.4669931 q 1.595703,0 2.545703,0.8683594 0.95,0.8683593 0.95,2.1003906 0,0.7124999 -0.333984,1.3136719 -0.333985,0.601172 -1.30625,1.462109 -0.653125,0.578907 -0.853516,0.853516 -0.200391,0.274609 -0.296875,0.630859 -0.09648,0.35625 -0.111328,1.157813 z m -0.08164,2.679297 v -1.521485 h 1.521484 v 1.521485 z"
     id="text1"
     aria-label="?" />
</svg>
