<?xml version="1.0" encoding="UTF-8" standalone="no"?>
<svg
   version="1.1"
   x="0px"
   y="0px"
   viewBox="0 0 268.39999 268.39999"
   xml:space="preserve"
   xmlns="http://www.w3.org/2000/svg"
   xmlns:svg="http://www.w3.org/2000/svg">
  <path
   d="M 134.2,0 C 60.2,0 0,60.2 0,134.2 c 0,74 60.2,134.2 134.2,134.2 74,0 134.2,-60.2 134.2,-134.2 C 268.4,60.2 208.2,0 134.2,0 Z M 64.6,151.9 c -9.8,0 -17.7,-7.9 -17.7,-17.7 0,-9.8 7.9,-17.7 17.7,-17.7 9.8,0 17.7,7.9 17.7,17.7 0,9.8 -7.9,17.7 -17.7,17.7 z m 81.1,99.4 c -3.8,0.4 -7.6,0.6 -11.5,0.6 -3.9,0 -7.7,-0.2 -11.5,-0.6 v -30.4 c 0,-6.4 5.1,-11.5 11.5,-11.5 6.4,0 11.5,5.1 11.5,11.5 z m 0,-203.8 c 0,6.4 -5.1,11.5 -11.5,11.5 -6.4,0 -11.5,-5.1 -11.5,-11.5 V 17.1 c 3.8,-0.4 7.6,-0.6 11.5,-0.6 3.9,0 7.7,0.2 11.5,0.6 z m 58.1,104.4 c -9.8,0 -17.7,-7.9 -17.7,-17.7 0,-9.8 7.9,-17.7 17.7,-17.7 9.8,0 17.7,7.9 17.7,17.7 0,9.8 -7.9,17.7 -17.7,17.7 z"
   id="type_f" />
</svg>
