<svg xmlns="http://www.w3.org/2000/svg" xmlns:xlink="http://www.w3.org/1999/xlink" version="1.1" x="0px" y="0px" viewBox="30 30 240 240" style="enable-background:new 0 0 240 240;" xml:space="preserve">
  <path d="M150,30C85.4,30,30,85.4,30,150s55.4,120,120,120s120-55.4,120-120S214.6,30,150,30z M80.4,167.7c-9.8,0-17.7-7.9-17.7-17.7s7.9-17.7,17.7-17.7s17.7,7.9,17.7,17.7S90.2,167.7,80.4,167.7z M150,87.9c-9.8,0-17.7-7.9-17.7-17.7c0-9.8,7.9-17.7,17.7-17.7s17.7,7.9,17.7,17.7C167.7,80,159.8,87.9,150,87.9z M219.6,167.7c-9.8,0-17.7-7.9-17.7-17.7s7.9-17.7,17.7-17.7c9.8,0,17.7,7.9,17.7,17.7S229.4,167.7,219.6,167.7z"/>
</svg>