<svg
  version="1.1"
  x="0px"
  y="0px"
  viewBox="0 0 270.60001 121.4"
  xml:space="preserve"
  xmlns="http://www.w3.org/2000/svg"
  xmlns:svg="http://www.w3.org/2000/svg">
  <path
    d="M 263.4,0 H 7.2 C 3.2,0 0,3.2 0,7.2 v 107 c 0,4 3.2,7.2 7.2,7.2 h 256.2 c 4,0 7.2,-3.2 7.2,-7.2 V 7.2 c 0,-4 -3.2,-7.2 -7.2,-7.2 z M 67.6,78.4 c -9.8,0 -17.7,-7.9 -17.7,-17.7 0,-9.8 7.9,-17.7 17.7,-17.7 9.8,0 17.7,7.9 17.7,17.7 0,9.8 -7.9,17.7 -17.7,17.7 z m 67.7,0 c -9.8,0 -17.7,-7.9 -17.7,-17.7 0,-9.8 7.9,-17.7 17.7,-17.7 9.8,0 17.7,7.9 17.7,17.7 0,9.8 -7.9,17.7 -17.7,17.7 z m 67.7,0 c -9.8,0 -17.7,-7.9 -17.7,-17.7 0,-9.8 7.9,-17.7 17.7,-17.7 9.8,0 17.7,7.9 17.7,17.7 0,9.8 -7.9,17.7 -17.7,17.7 z"
    id="type_l" />
</svg>
