<svg
   version="1.1"
   x="0px"
   y="0px"
   viewBox="0 0 268.39999 268.39999"
   xml:space="preserve"
   xmlns="http://www.w3.org/2000/svg"
   xmlns:svg="http://www.w3.org/2000/svg">
  <path
     d="M 134.2,0 C 60.2,0 0,60.2 0,134.2 c 0,74 60.2,134.2 134.2,134.2 74,0 134.2,-60.2 134.2,-134.2 C 268.4,60.2 208.2,0 134.2,0 Z M 64.6,151.9 c -9.8,0 -17.7,-7.9 -17.7,-17.7 0,-9.8 7.9,-17.7 17.7,-17.7 9.8,0 17.7,7.9 17.7,17.7 0,9.8 -7.9,17.7 -17.7,17.7 z m 69.6,79.8 c -9.8,0 -17.7,-7.9 -17.7,-17.7 0,-9.8 7.9,-17.7 17.7,-17.7 9.8,0 17.7,7.9 17.7,17.7 0,9.8 -7.9,17.7 -17.7,17.7 z m 69.6,-79.8 c -9.8,0 -17.7,-7.9 -17.7,-17.7 0,-9.8 7.9,-17.7 17.7,-17.7 9.8,0 17.7,7.9 17.7,17.7 0,9.8 -7.9,17.7 -17.7,17.7 z"
     id="type_h" />
</svg>
