<svg
   version="1.1"
   x="0px"
   y="0px"
   viewBox="0 0 277 160.39999"
   xml:space="preserve"
   xmlns="http://www.w3.org/2000/svg"
   xmlns:svg="http://www.w3.org/2000/svg">
   <path
     d="M 275.5,75.5 225.6,3.6 C 224,1.3 221.4,0 218.7,0 H 58.3 C 55.5,0 53,1.3 51.4,3.6 L 1.5,76.1 c -2,2.8 -2,6.6 0,9.5 l 49.9,71.2 c 1.5,2.3 4.1,3.6 6.8,3.6 h 160.4 c 2.7,0 5.3,-1.3 7,-3.5 L 275.5,85 c 2,-2.8 2,-6.6 0,-9.5 z M 68.8,106.2 c -9.8,0 -17.7,-7.9 -17.7,-17.7 0,-9.8 7.9,-17.7 17.7,-17.7 9.8,0 17.7,7.9 17.7,17.7 0,9.8 -7.9,17.7 -17.7,17.7 z m 69.6,-34.7 c -9.8,0 -17.7,-7.9 -17.7,-17.7 0,-9.8 7.9,-17.7 17.7,-17.7 9.8,0 17.7,7.9 17.7,17.7 0,9.8 -7.9,17.7 -17.7,17.7 z m 69.6,34.7 c -9.8,0 -17.7,-7.9 -17.7,-17.7 0,-9.8 7.9,-17.7 17.7,-17.7 9.8,0 17.7,7.9 17.7,17.7 0,9.8 -7.9,17.7 -17.7,17.7 z"
     id="type_j" />
</svg>
