<svg
  xmlns="http://www.w3.org/2000/svg"
  xmlns:xlink="http://www.w3.org/1999/xlink"
  version="1.1"
  x="0px"
  y="0px"
  viewBox="0 0 300 300"
  xml:space="preserve"
>
  <path
    d="M150,0C67.2,0,0,67.2,0,150s67.2,150,150,150s150-67.2,150-150S232.8,0,150,0z M80.4,167.7c-9.8,0-17.7-7.9-17.7-17.7
    s7.9-17.7,17.7-17.7s17.7,7.9,17.7,17.7S90.2,167.7,80.4,167.7z M150,87.9c-9.8,0-17.7-7.9-17.7-17.7c0-9.8,7.9-17.7,17.7-17.7
    s17.7,7.9,17.7,17.7C167.7,80,159.8,87.9,150,87.9z M219.6,167.7c-9.8,0-17.7-7.9-17.7-17.7s7.9-17.7,17.7-17.7
    c9.8,0,17.7,7.9,17.7,17.7S229.4,167.7,219.6,167.7z"
  />
</svg>